<svg width="24" height="24" viewBox="0 0 24 24" fill="none" xmlns="http://www.w3.org/2000/svg">
<path fill-rule="evenodd" clip-rule="evenodd" d="M6.39898 22.5598H17.599C19.379 22.5598 21.079 21.1298 21.379 19.3598L22.709 11.3998C22.909 10.1598 22.309 8.56982 21.329 7.77982L14.399 2.23982C13.049 1.15982 10.939 1.14982 9.59898 2.22982L2.66898 7.77982C1.67898 8.56982 1.06898 10.1598 1.28898 11.3998L2.61898 19.3698C2.91898 21.1598 4.57898 22.5598 6.39898 22.5598ZM13.0236 15C13.0236 14.434 12.5647 13.975 11.9986 13.975C11.4325 13.975 10.9736 14.434 10.9736 15V18C10.9736 18.5661 11.4325 19.025 11.9986 19.025C12.5647 19.025 13.0236 18.5661 13.0236 18L13.0236 15Z" fill="#0062F5"/>
</svg>
