<svg width="70" height="78" viewBox="0 0 70 78" fill="none" xmlns="http://www.w3.org/2000/svg">
<mask id="mask0_634_21376" style="mask-type:luminance" maskUnits="userSpaceOnUse" x="16" y="50" width="39" height="28">
<path d="M19.6215 55.8282L16.1494 71.3393C22.4162 75.7354 30.008 77.9988 38.0066 77.2787C44.2866 76.7136 50.0449 74.3775 54.9014 70.7594L29.8683 51.6202C28.9282 50.9014 27.8979 50.4918 26.8614 50.356C23.6854 49.9404 20.4561 52.0995 19.6215 55.8282Z" fill="white"/>
</mask>
<g mask="url(#mask0_634_21376)">
<path d="M26.5302 34.6797L6.99512 70.5172L45.8086 95.7008L65.3436 59.8633L26.5302 34.6797Z" fill="#0062F5"/>
</g>
<mask id="mask1_634_21376" style="mask-type:luminance" maskUnits="userSpaceOnUse" x="26" y="22" width="44" height="40">
<path d="M26.314 28.1147C25.7281 31.0861 26.8264 34.1727 29.0799 35.8889L63.3175 61.9629C65.9796 57.976 67.9471 53.4214 69.0445 48.5233L36.3948 23.6585C35.4678 22.9526 34.4607 22.5509 33.4514 22.4187C30.2716 22.0024 27.0734 24.2632 26.314 28.1147Z" fill="white"/>
</mask>
<g mask="url(#mask1_634_21376)">
<path d="M35.4448 4.99219L11.96 49.8449L58.8396 79.0627L82.3246 34.21L35.4448 4.99219Z" fill="#0062F5"/>
</g>
<mask id="mask2_634_21376" style="mask-type:luminance" maskUnits="userSpaceOnUse" x="29" y="0" width="42" height="35">
<path d="M32.2326 0.91078C31.2806 0.996569 30.3407 1.12275 29.4141 1.28809L70.0015 34.6567C68.4964 20.5012 60.0384 8.94751 48.6886 3.74891C47.5648 3.27728 46.427 2.83084 45.2816 2.41022C43.3609 1.77596 41.3756 1.31786 39.3414 1.05133C37.0246 0.74753 34.6487 0.693391 32.2326 0.91078Z" fill="white"/>
</mask>
<g mask="url(#mask2_634_21376)">
<path d="M39.9453 -17.8301L16.4834 22.0137L59.6352 52.2595L83.0971 12.4159L39.9453 -17.8301Z" fill="#0062F5"/>
</g>
<mask id="mask3_634_21376" style="mask-type:luminance" maskUnits="userSpaceOnUse" x="0" y="3" width="23" height="60">
<path d="M0.120833 42.2466C0.705425 49.9785 3.35737 56.9851 7.43291 62.6718L22.7506 3.22754C8.42822 9.09704 -1.19951 24.7865 0.120833 42.2466Z" fill="white"/>
</mask>
<g mask="url(#mask3_634_21376)">
<path d="M6.53231 -8.14062L-25.7178 46.6274L11.0337 72.3872L43.2837 17.6191L6.53231 -8.14062Z" fill="#0062F5"/>
</g>
</svg>
