<svg width="22" height="22" viewBox="0 0 22 22" fill="none" xmlns="http://www.w3.org/2000/svg">
<path fill-rule="evenodd" clip-rule="evenodd" d="M5.39996 21.5598H16.6C18.38 21.5598 20.08 20.1298 20.38 18.3598L21.71 10.3998C21.91 9.15982 21.31 7.56982 20.33 6.77982L13.4 1.23982C12.05 0.159822 9.93996 0.149822 8.59996 1.22982L1.66996 6.77982C0.679961 7.56982 0.0699605 9.15982 0.289961 10.3998L1.61996 18.3698C1.91996 20.1598 3.57996 21.5598 5.39996 21.5598ZM12.0246 14C12.0246 13.434 11.5657 12.975 10.9996 12.975C10.4335 12.975 9.97461 13.434 9.97461 14V17C9.97461 17.5661 10.4335 18.025 10.9996 18.025C11.5657 18.025 12.0246 17.5661 12.0246 17L12.0246 14Z" fill="white"/>
</svg>
